<svg width="354" height="212" viewBox="0 0 354 212" fill="none" xmlns="http://www.w3.org/2000/svg">
<rect x="2.5" y="2.5" width="349" height="207" rx="7.5" fill="#FFF9F9"/>
<path d="M85.31 99.95V100.31L82.07 100.67C81.35 100.76 80.87 100.94 80.63 101.21C80.39 101.48 80.27 101.975 80.27 102.695V131.72H79.82L59.615 103.055H59.435V128.255C59.435 128.975 59.525 129.485 59.705 129.785C59.885 130.055 60.245 130.22 60.785 130.28L63.98 130.64V131H54.125V130.64L57.365 130.28C57.905 130.22 58.265 130.055 58.445 129.785C58.625 129.485 58.715 128.975 58.715 128.255V102.065L58.535 101.795C58.115 101.195 57.71 100.805 57.32 100.625C56.96 100.415 56.42 100.31 55.7 100.31H54.935V99.95H61.64L79.37 124.79H79.55V102.695C79.55 101.975 79.46 101.465 79.28 101.165C79.1 100.865 78.74 100.7 78.2 100.67L74.555 100.31V99.95H85.31ZM101.212 125.87L101.392 125.96L101.212 126.455C100.612 128.045 99.7122 129.275 98.5122 130.145C97.3422 131.015 95.9322 131.45 94.2822 131.45C92.6622 131.45 91.2222 131.03 89.9622 130.19C88.7022 129.35 87.7122 128.18 86.9922 126.68C86.3022 125.18 85.9572 123.455 85.9572 121.505C85.9572 119.555 86.3322 117.815 87.0822 116.285C87.8322 114.755 88.8972 113.57 90.2772 112.73C91.6572 111.89 93.2322 111.47 95.0022 111.47C97.1022 111.47 98.7072 112.1 99.8172 113.36C100.957 114.59 101.542 116.39 101.572 118.76L101.302 118.985H89.1522C89.0922 119.765 89.0622 120.38 89.0622 120.83C89.0622 123.56 89.6172 125.645 90.7272 127.085C91.8372 128.495 93.3822 129.2 95.3622 129.2C96.3822 129.2 97.3572 128.975 98.2872 128.525C99.2472 128.045 100.087 127.34 100.807 126.41L101.212 125.87ZM94.5072 111.965C93.0972 111.965 91.9272 112.55 90.9972 113.72C90.0672 114.89 89.4672 116.48 89.1972 118.49L97.9272 118.175C98.0172 117.815 98.0622 117.215 98.0622 116.375C98.0622 114.755 97.7472 113.615 97.1172 112.955C96.5172 112.295 95.6472 111.965 94.5072 111.965ZM124.291 130.64V131H118.531L110.926 121.775L109.666 123.305V130.28L112.366 130.64V131H103.996V130.64L106.741 130.28V101.615L104.086 100.625V100.31L109.306 98.555H109.666V122.495L116.056 114.8C116.596 114.11 116.866 113.63 116.866 113.36C116.866 113.09 116.671 112.88 116.281 112.73C115.891 112.58 115.156 112.43 114.076 112.28V111.92H121.681V112.28C120.481 112.49 119.536 112.775 118.846 113.135C118.186 113.465 117.556 113.99 116.956 114.71L112.906 119.48L121.816 130.28L124.291 130.64ZM127.262 103.46C126.872 103.85 126.677 104.36 126.677 104.99C126.677 105.62 126.872 106.145 127.262 106.565C127.682 106.955 128.207 107.15 128.837 107.15C129.467 107.15 129.977 106.955 130.367 106.565C130.787 106.145 130.997 105.62 130.997 104.99C130.997 104.36 130.787 103.85 130.367 103.46C129.977 103.04 129.467 102.83 128.837 102.83C128.207 102.83 127.682 103.04 127.262 103.46ZM130.547 111.47V130.28L133.292 130.64V131H124.877V130.64L127.622 130.28V114.53L124.967 113.54V113.225L130.187 111.47H130.547ZM135.115 112.37L140.065 107.6L140.245 107.645V111.92H145.375L145.105 112.64H140.245V126.41C140.245 127.46 140.41 128.24 140.74 128.75C141.1 129.47 141.775 129.83 142.765 129.83C143.245 129.83 143.71 129.71 144.16 129.47C144.61 129.23 145.105 128.84 145.645 128.3L145.825 128.435C145.375 129.365 144.73 130.1 143.89 130.64C143.08 131.18 142.21 131.45 141.28 131.45C140.32 131.45 139.465 131.18 138.715 130.64C138.205 130.28 137.845 129.815 137.635 129.245C137.425 128.675 137.32 127.925 137.32 126.995V112.595H135.205L135.115 112.37ZM151.926 131.315C150.786 131.315 149.841 130.925 149.091 130.145C148.371 129.335 148.011 128.3 148.011 127.04C148.011 125.54 148.686 124.34 150.036 123.44C151.416 122.54 153.741 121.76 157.011 121.1V117.005C157.011 115.265 156.816 114.065 156.426 113.405C156.036 112.715 155.361 112.37 154.401 112.37C153.471 112.37 152.721 112.625 152.151 113.135C151.581 113.615 151.296 114.275 151.296 115.115L151.341 116.33C151.341 117.08 151.191 117.68 150.891 118.13C150.621 118.55 150.231 118.76 149.721 118.76C149.271 118.76 148.896 118.61 148.596 118.31C148.326 118.01 148.191 117.62 148.191 117.14C148.191 116.42 148.536 115.64 149.226 114.8C149.946 113.93 150.861 113.21 151.971 112.64C153.321 111.89 154.716 111.515 156.156 111.515C156.996 111.515 157.701 111.68 158.271 112.01C158.871 112.34 159.306 112.805 159.576 113.405C159.726 113.795 159.816 114.275 159.846 114.845C159.906 115.415 159.936 116.51 159.936 118.13V126.725C159.936 127.805 160.041 128.555 160.251 128.975C160.461 129.365 160.836 129.56 161.376 129.56C162.186 129.56 162.786 129.275 163.176 128.705L163.356 128.795C162.996 129.545 162.516 130.13 161.916 130.55C161.316 130.94 160.671 131.135 159.981 131.135C159.201 131.135 158.556 130.91 158.046 130.46C157.536 129.98 157.251 129.35 157.191 128.57L157.056 128.525C156.366 129.395 155.571 130.085 154.671 130.595C153.771 131.075 152.856 131.315 151.926 131.315ZM153.861 129.605C154.491 129.605 155.076 129.47 155.616 129.2C156.186 128.9 156.651 128.48 157.011 127.94V121.595C155.451 121.985 154.236 122.375 153.366 122.765C152.526 123.155 151.926 123.62 151.566 124.16C151.206 124.7 151.026 125.375 151.026 126.185C151.026 127.235 151.281 128.075 151.791 128.705C152.301 129.305 152.991 129.605 153.861 129.605ZM191.44 130.55C189.97 131.33 188.305 131.72 186.445 131.72C185.035 131.72 183.67 131.495 182.35 131.045C181.03 130.625 179.905 130.025 178.975 129.245L178.03 131.72H177.445L176.86 120.965L177.265 120.875C177.715 122.915 178.165 124.505 178.615 125.645C179.095 126.785 179.71 127.775 180.46 128.615C181.99 130.325 184.015 131.18 186.535 131.18C188.695 131.18 190.375 130.625 191.575 129.515C192.805 128.375 193.42 126.845 193.42 124.925C193.42 123.575 193.09 122.435 192.43 121.505C191.8 120.575 190.93 119.78 189.82 119.12C188.71 118.46 187.15 117.695 185.14 116.825C183.49 116.105 182.11 115.4 181 114.71C179.89 113.99 178.96 113.075 178.21 111.965C177.49 110.825 177.13 109.445 177.13 107.825C177.13 106.175 177.52 104.705 178.3 103.415C179.11 102.095 180.205 101.075 181.585 100.355C182.995 99.605 184.585 99.23 186.355 99.23C187.585 99.23 188.725 99.44 189.775 99.86C190.855 100.28 192.01 100.97 193.24 101.93L194.32 99.77H194.905L195.355 109.58L194.905 109.715C194.425 107.705 193.81 105.935 193.06 104.405C191.56 101.315 189.265 99.77 186.175 99.77C184.315 99.77 182.83 100.31 181.72 101.39C180.61 102.44 180.055 103.88 180.055 105.71C180.055 107.03 180.355 108.14 180.955 109.04C181.585 109.94 182.44 110.72 183.52 111.38C184.63 112.04 186.19 112.835 188.2 113.765C190 114.575 191.44 115.34 192.52 116.06C193.63 116.78 194.515 117.68 195.175 118.76C195.865 119.81 196.21 121.115 196.21 122.675C196.21 124.415 195.79 125.975 194.95 127.355C194.11 128.705 192.94 129.77 191.44 130.55ZM217.316 128.75V128.975L212.411 131.225H212.141V128.165L212.006 128.12C210.236 130.34 208.331 131.45 206.291 131.45C205.361 131.45 204.536 131.255 203.816 130.865C203.096 130.475 202.571 129.935 202.241 129.245C202.031 128.855 201.896 128.33 201.836 127.67C201.776 126.98 201.746 125.795 201.746 124.115V112.64L199.046 112.28V111.92H204.671V124.115C204.671 125.315 204.701 126.2 204.761 126.77C204.821 127.31 204.941 127.775 205.121 128.165C205.331 128.645 205.676 129.035 206.156 129.335C206.666 129.605 207.236 129.74 207.866 129.74C208.616 129.74 209.336 129.56 210.026 129.2C210.716 128.81 211.346 128.255 211.916 127.535V112.64L209.216 112.28V111.92H214.841V128.21L217.316 128.75ZM229.707 111.47C230.307 111.47 230.817 111.68 231.237 112.1C231.657 112.49 231.867 112.97 231.867 113.54C231.867 114.02 231.702 114.425 231.372 114.755C231.042 115.085 230.637 115.25 230.157 115.25C229.857 115.25 229.602 115.19 229.392 115.07C229.212 114.92 229.017 114.71 228.807 114.44C228.597 114.2 228.402 114.02 228.222 113.9C228.072 113.78 227.877 113.72 227.637 113.72C227.157 113.72 226.662 114.005 226.152 114.575C225.672 115.145 225.327 115.805 225.117 116.555V130.28L228.717 130.64V131H219.447V130.64L222.192 130.28V114.53L219.537 113.54V113.225L224.622 111.47H224.982V115.43C226.662 112.79 228.237 111.47 229.707 111.47ZM261.272 130.64V131H252.812V130.64L255.557 130.28V118.805C255.557 117.635 255.527 116.765 255.467 116.195C255.407 115.625 255.302 115.145 255.152 114.755C254.702 113.675 253.802 113.135 252.452 113.135C251.012 113.135 249.797 113.795 248.807 115.115C248.867 116.135 248.897 117.365 248.897 118.805V130.28L251.687 130.64V131H243.182V130.64L245.972 130.28V118.805C245.972 117.635 245.942 116.765 245.882 116.195C245.822 115.625 245.717 115.145 245.567 114.755C245.117 113.675 244.217 113.135 242.867 113.135C241.457 113.135 240.272 113.75 239.312 114.98V130.28L242.057 130.64V131H233.687V130.64L236.387 130.28V114.53L233.732 113.54V113.225L238.817 111.47H239.177V114.485C240.947 112.475 242.792 111.47 244.712 111.47C246.452 111.47 247.682 112.205 248.402 113.675C248.522 113.915 248.627 114.215 248.717 114.575C250.547 112.505 252.407 111.47 254.297 111.47C256.037 111.47 257.267 112.205 257.987 113.675C258.197 114.065 258.332 114.62 258.392 115.34C258.452 116.03 258.482 117.185 258.482 118.805V130.28L261.272 130.64ZM267.722 131.315C266.582 131.315 265.637 130.925 264.887 130.145C264.167 129.335 263.807 128.3 263.807 127.04C263.807 125.54 264.482 124.34 265.832 123.44C267.212 122.54 269.537 121.76 272.807 121.1V117.005C272.807 115.265 272.612 114.065 272.222 113.405C271.832 112.715 271.157 112.37 270.197 112.37C269.267 112.37 268.517 112.625 267.947 113.135C267.377 113.615 267.092 114.275 267.092 115.115L267.137 116.33C267.137 117.08 266.987 117.68 266.687 118.13C266.417 118.55 266.027 118.76 265.517 118.76C265.067 118.76 264.692 118.61 264.392 118.31C264.122 118.01 263.987 117.62 263.987 117.14C263.987 116.42 264.332 115.64 265.022 114.8C265.742 113.93 266.657 113.21 267.767 112.64C269.117 111.89 270.512 111.515 271.952 111.515C272.792 111.515 273.497 111.68 274.067 112.01C274.667 112.34 275.102 112.805 275.372 113.405C275.522 113.795 275.612 114.275 275.642 114.845C275.702 115.415 275.732 116.51 275.732 118.13V126.725C275.732 127.805 275.837 128.555 276.047 128.975C276.257 129.365 276.632 129.56 277.172 129.56C277.982 129.56 278.582 129.275 278.972 128.705L279.152 128.795C278.792 129.545 278.312 130.13 277.712 130.55C277.112 130.94 276.467 131.135 275.777 131.135C274.997 131.135 274.352 130.91 273.842 130.46C273.332 129.98 273.047 129.35 272.987 128.57L272.852 128.525C272.162 129.395 271.367 130.085 270.467 130.595C269.567 131.075 268.652 131.315 267.722 131.315ZM269.657 129.605C270.287 129.605 270.872 129.47 271.412 129.2C271.982 128.9 272.447 128.48 272.807 127.94V121.595C271.247 121.985 270.032 122.375 269.162 122.765C268.322 123.155 267.722 123.62 267.362 124.16C267.002 124.7 266.822 125.375 266.822 126.185C266.822 127.235 267.077 128.075 267.587 128.705C268.097 129.305 268.787 129.605 269.657 129.605ZM299.52 130.64V131H291.15V130.64L293.895 130.28V118.805C293.895 117.635 293.865 116.765 293.805 116.195C293.745 115.625 293.625 115.145 293.445 114.755C293.205 114.245 292.8 113.855 292.23 113.585C291.69 113.285 291.06 113.135 290.34 113.135C288.81 113.135 287.445 113.78 286.245 115.07V130.28L288.99 130.64V131H280.575V130.64L283.32 130.28V114.755L280.665 113.765V113.45L285.75 111.695H286.11V114.53C288.03 112.49 290.04 111.47 292.14 111.47C293.07 111.47 293.91 111.68 294.66 112.1C295.44 112.49 295.995 113.015 296.325 113.675C296.535 114.065 296.67 114.605 296.73 115.295C296.79 115.955 296.82 117.125 296.82 118.805V130.28L299.52 130.64Z" fill="#221E1E"/>
<line x1="56" y1="164.5" x2="114.034" y2="164.5" stroke="#5E064A"/>
<path d="M137.362 158.533C137.362 158.165 137.316 157.912 137.224 157.774C137.132 157.636 136.948 157.544 136.672 157.498L135.039 157.314V157.13H140.076V157.314L138.42 157.498C138.144 157.544 137.96 157.636 137.868 157.774C137.776 157.912 137.73 158.165 137.73 158.533V167.365C137.73 168.331 137.654 169.136 137.5 169.78C137.362 170.424 137.14 170.976 136.833 171.436C136.419 172.034 135.852 172.509 135.131 172.862C134.411 173.199 133.613 173.368 132.739 173.368C132.034 173.368 131.336 173.253 130.646 173.023C129.956 172.793 129.381 172.479 128.921 172.08C128.446 171.666 128.109 171.137 127.909 170.493C127.71 169.849 127.61 168.96 127.61 167.825V157.498L125.724 157.314V157.13H131.382V157.314L129.381 157.498V168.584C129.381 169.703 129.481 170.562 129.68 171.16C129.895 171.758 130.248 172.203 130.738 172.494C130.999 172.647 131.321 172.77 131.704 172.862C132.088 172.954 132.486 173 132.9 173C133.667 173 134.372 172.847 135.016 172.54C135.66 172.233 136.174 171.796 136.557 171.229C136.849 170.8 137.056 170.301 137.178 169.734C137.301 169.151 137.362 168.4 137.362 167.48V158.533ZM141.25 157.13H146.793V157.314L144.907 157.498V172.632L146.793 172.816V173H141.25V172.816L143.136 172.632V157.498L141.25 157.314V157.13ZM165.182 158.349C166.118 159.008 166.846 159.913 167.367 161.063C167.889 162.213 168.149 163.516 168.149 164.973C168.149 166.43 167.889 167.756 167.367 168.952C166.846 170.148 166.118 171.083 165.182 171.758C164.584 172.187 163.894 172.502 163.112 172.701C162.346 172.9 161.403 173 160.283 173H154.165V172.816L156.051 172.632V157.498L154.165 157.314V157.13H160.283C162.369 157.13 164.002 157.536 165.182 158.349ZM164.354 171.367C164.845 170.738 165.228 169.849 165.504 168.699C165.796 167.534 165.941 166.253 165.941 164.858C165.941 163.493 165.803 162.29 165.527 161.247C165.267 160.204 164.876 159.376 164.354 158.763C163.925 158.257 163.396 157.904 162.767 157.705C162.139 157.506 161.242 157.406 160.076 157.406H157.822V172.724H160.076C161.303 172.724 162.223 172.624 162.836 172.425C163.45 172.226 163.956 171.873 164.354 171.367ZM177.91 170.378L178.002 170.424L177.91 170.677C177.603 171.49 177.143 172.118 176.53 172.563C175.932 173.008 175.211 173.23 174.368 173.23C173.54 173.23 172.804 173.015 172.16 172.586C171.516 172.157 171.01 171.559 170.642 170.792C170.289 170.025 170.113 169.144 170.113 168.147C170.113 167.15 170.304 166.261 170.688 165.479C171.071 164.697 171.615 164.091 172.321 163.662C173.026 163.233 173.831 163.018 174.736 163.018C175.809 163.018 176.629 163.34 177.197 163.984C177.779 164.613 178.078 165.533 178.094 166.744L177.956 166.859H171.746C171.715 167.258 171.7 167.572 171.7 167.802C171.7 169.197 171.983 170.263 172.551 170.999C173.118 171.72 173.908 172.08 174.92 172.08C175.441 172.08 175.939 171.965 176.415 171.735C176.905 171.49 177.335 171.129 177.703 170.654L177.91 170.378ZM174.483 163.271C173.762 163.271 173.164 163.57 172.689 164.168C172.213 164.766 171.907 165.579 171.769 166.606L176.231 166.445C176.277 166.261 176.3 165.954 176.3 165.525C176.3 164.697 176.139 164.114 175.817 163.777C175.51 163.44 175.065 163.271 174.483 163.271ZM180.896 163.731C181.494 163.256 182.33 163.018 183.403 163.018C183.771 163.018 184.147 163.049 184.53 163.11C184.914 163.171 185.228 163.248 185.473 163.34V165.893H185.22C185.006 164.973 184.73 164.306 184.392 163.892C184.07 163.478 183.633 163.271 183.081 163.271C182.575 163.271 182.169 163.432 181.862 163.754C181.556 164.061 181.402 164.475 181.402 164.996C181.402 165.579 181.571 166.023 181.908 166.33C182.246 166.621 182.759 166.928 183.449 167.25C183.986 167.495 184.408 167.725 184.714 167.94C185.036 168.139 185.305 168.423 185.519 168.791C185.749 169.159 185.864 169.627 185.864 170.194C185.864 171.129 185.565 171.873 184.967 172.425C184.369 172.962 183.564 173.23 182.552 173.23C182.184 173.23 181.77 173.192 181.31 173.115C180.85 173.038 180.459 172.939 180.137 172.816L180.022 169.826H180.298C180.452 170.899 180.72 171.697 181.103 172.218C181.502 172.724 182.016 172.977 182.644 172.977C183.212 172.977 183.664 172.801 184.001 172.448C184.339 172.08 184.507 171.605 184.507 171.022C184.507 170.393 184.331 169.918 183.978 169.596C183.626 169.274 183.097 168.944 182.391 168.607C181.87 168.346 181.448 168.116 181.126 167.917C180.82 167.702 180.559 167.419 180.344 167.066C180.13 166.713 180.022 166.269 180.022 165.732C180.022 164.873 180.314 164.206 180.896 163.731ZM188.619 158.924C188.419 159.123 188.32 159.384 188.32 159.706C188.32 160.028 188.419 160.296 188.619 160.511C188.833 160.71 189.102 160.81 189.424 160.81C189.746 160.81 190.006 160.71 190.206 160.511C190.42 160.296 190.528 160.028 190.528 159.706C190.528 159.384 190.42 159.123 190.206 158.924C190.006 158.709 189.746 158.602 189.424 158.602C189.102 158.602 188.833 158.709 188.619 158.924ZM190.298 163.018V172.632L191.701 172.816V173H187.4V172.816L188.803 172.632V164.582L187.446 164.076V163.915L190.114 163.018H190.298ZM199.854 162.857C199.548 162.857 199.325 163.171 199.187 163.8C199.586 164.107 199.893 164.482 200.107 164.927C200.322 165.356 200.429 165.839 200.429 166.376C200.429 167.204 200.176 167.917 199.67 168.515C199.18 169.098 198.52 169.473 197.692 169.642C197.508 169.688 197.324 169.711 197.14 169.711C196.343 169.849 195.722 170.041 195.277 170.286C194.848 170.531 194.633 170.807 194.633 171.114C194.633 171.329 194.702 171.513 194.84 171.666C194.978 171.804 195.239 171.942 195.622 172.08C196.006 172.203 196.581 172.333 197.347 172.471C198.651 172.716 199.578 173.061 200.13 173.506C200.682 173.951 200.958 174.579 200.958 175.392C200.958 176.005 200.759 176.557 200.36 177.048C199.962 177.554 199.41 177.945 198.704 178.221C197.999 178.512 197.209 178.658 196.335 178.658C195.063 178.658 194.074 178.428 193.368 177.968C192.678 177.523 192.333 176.895 192.333 176.082C192.333 175.515 192.556 174.986 193 174.495C193.46 174.02 194.074 173.659 194.84 173.414C194.304 173.199 193.913 172.962 193.667 172.701C193.437 172.425 193.322 172.103 193.322 171.735C193.322 171.306 193.575 170.915 194.081 170.562C194.603 170.209 195.346 169.926 196.312 169.711C195.362 169.619 194.587 169.266 193.989 168.653C193.407 168.04 193.115 167.273 193.115 166.353C193.115 165.372 193.453 164.574 194.127 163.961C194.817 163.332 195.699 163.018 196.772 163.018C197.631 163.018 198.375 163.225 199.003 163.639C199.387 162.32 199.977 161.661 200.774 161.661C201.066 161.661 201.296 161.745 201.464 161.914C201.633 162.067 201.717 162.274 201.717 162.535C201.717 162.75 201.641 162.934 201.487 163.087C201.334 163.24 201.15 163.317 200.935 163.317C200.751 163.317 200.56 163.233 200.36 163.064C200.33 163.049 200.261 163.01 200.153 162.949C200.061 162.888 199.962 162.857 199.854 162.857ZM196.772 169.504C197.355 169.504 197.823 169.213 198.175 168.63C198.543 168.047 198.727 167.296 198.727 166.376C198.727 165.456 198.543 164.705 198.175 164.122C197.823 163.539 197.355 163.248 196.772 163.248C196.19 163.248 195.714 163.539 195.346 164.122C194.994 164.705 194.817 165.456 194.817 166.376C194.817 167.296 194.994 168.047 195.346 168.63C195.714 169.213 196.19 169.504 196.772 169.504ZM199.624 176.082C199.624 175.499 199.417 175.047 199.003 174.725C198.589 174.418 197.807 174.15 196.657 173.92C196.013 173.813 195.484 173.675 195.07 173.506C193.982 173.889 193.437 174.679 193.437 175.875C193.437 176.688 193.698 177.316 194.219 177.761C194.756 178.206 195.507 178.428 196.473 178.428C197.439 178.428 198.206 178.213 198.773 177.784C199.341 177.37 199.624 176.803 199.624 176.082ZM211.615 172.816V173H207.337V172.816L208.74 172.632V166.767C208.74 166.169 208.724 165.724 208.694 165.433C208.663 165.142 208.602 164.896 208.51 164.697C208.387 164.436 208.18 164.237 207.889 164.099C207.613 163.946 207.291 163.869 206.923 163.869C206.141 163.869 205.443 164.199 204.83 164.858V172.632L206.233 172.816V173H201.932V172.816L203.335 172.632V164.697L201.978 164.191V164.03L204.577 163.133H204.761V164.582C205.742 163.539 206.769 163.018 207.843 163.018C208.318 163.018 208.747 163.125 209.131 163.34C209.529 163.539 209.813 163.808 209.982 164.145C210.089 164.344 210.158 164.62 210.189 164.973C210.219 165.31 210.235 165.908 210.235 166.767V172.632L211.615 172.816ZM220.698 170.378L220.79 170.424L220.698 170.677C220.391 171.49 219.931 172.118 219.318 172.563C218.72 173.008 217.999 173.23 217.156 173.23C216.328 173.23 215.592 173.015 214.948 172.586C214.304 172.157 213.798 171.559 213.43 170.792C213.077 170.025 212.901 169.144 212.901 168.147C212.901 167.15 213.092 166.261 213.476 165.479C213.859 164.697 214.403 164.091 215.109 163.662C215.814 163.233 216.619 163.018 217.524 163.018C218.597 163.018 219.417 163.34 219.985 163.984C220.567 164.613 220.866 165.533 220.882 166.744L220.744 166.859H214.534C214.503 167.258 214.488 167.572 214.488 167.802C214.488 169.197 214.771 170.263 215.339 170.999C215.906 171.72 216.696 172.08 217.708 172.08C218.229 172.08 218.727 171.965 219.203 171.735C219.693 171.49 220.123 171.129 220.491 170.654L220.698 170.378ZM217.271 163.271C216.55 163.271 215.952 163.57 215.477 164.168C215.001 164.766 214.695 165.579 214.557 166.606L219.019 166.445C219.065 166.261 219.088 165.954 219.088 165.525C219.088 164.697 218.927 164.114 218.605 163.777C218.298 163.44 217.853 163.271 217.271 163.271ZM227.525 163.018C227.832 163.018 228.093 163.125 228.307 163.34C228.522 163.539 228.629 163.785 228.629 164.076C228.629 164.321 228.545 164.528 228.376 164.697C228.208 164.866 228.001 164.95 227.755 164.95C227.602 164.95 227.472 164.919 227.364 164.858C227.272 164.781 227.173 164.674 227.065 164.536C226.958 164.413 226.858 164.321 226.766 164.26C226.69 164.199 226.59 164.168 226.467 164.168C226.222 164.168 225.969 164.314 225.708 164.605C225.463 164.896 225.287 165.234 225.179 165.617V172.632L227.019 172.816V173H222.281V172.816L223.684 172.632V164.582L222.327 164.076V163.915L224.926 163.018H225.11V165.042C225.969 163.693 226.774 163.018 227.525 163.018Z" fill="#34042A"/>
<line x1="240.034" y1="164.5" x2="298.069" y2="164.5" stroke="#5E064A"/>
<path d="M172.95 79.63L143.7 42.76V75.64L148.92 76.81V79H134.31V76.81L139.59 75.64V36.58L134.34 35.47V33.31H150.45L172.95 61.48V36.58L167.67 35.47V33.31H182.31V35.47L177 36.58V79.63H172.95ZM203.085 79.54C201.245 79.54 199.455 79.3 197.715 78.82C195.975 78.34 194.105 77.59 192.105 76.57L190.035 79H188.175L187.005 63.79L189.495 63.4C190.775 67.86 192.465 71.09 194.565 73.09C196.685 75.09 199.495 76.09 202.995 76.09C205.495 76.09 207.485 75.49 208.965 74.29C210.465 73.09 211.215 71.44 211.215 69.34C211.215 68.08 210.685 66.91 209.625 65.83C208.585 64.73 206.785 63.56 204.225 62.32L199.395 59.92C195.475 57.98 192.595 55.83 190.755 53.47C188.915 51.11 187.995 48.36 187.995 45.22C187.995 42.8 188.665 40.65 190.005 38.77C191.345 36.87 193.155 35.38 195.435 34.3C197.735 33.22 200.335 32.68 203.235 32.68C207.295 32.68 210.775 33.91 213.675 36.37L215.085 33.22H217.065L217.635 46.36H215.025C214.045 42.98 212.605 40.44 210.705 38.74C208.825 37.04 206.435 36.19 203.535 36.19C201.495 36.19 199.905 36.69 198.765 37.69C197.625 38.69 197.055 40.07 197.055 41.83C197.055 43.19 197.565 44.41 198.585 45.49C199.605 46.55 201.375 47.72 203.895 49L208.635 51.43C212.395 53.35 215.095 55.46 216.735 57.76C218.395 60.06 219.225 62.82 219.225 66.04C219.225 68.6 218.515 70.9 217.095 72.94C215.675 74.98 213.745 76.59 211.305 77.77C208.865 78.95 206.125 79.54 203.085 79.54Z" fill="#5E064A"/>
<rect x="2.5" y="2.5" width="349" height="207" rx="7.5" stroke="#EFC6C6" stroke-width="5"/>
</svg>
