<svg width="306" height="81" viewBox="0 0 306 81" fill="none" xmlns="http://www.w3.org/2000/svg">
<g filter="url(#filter0_i_29_356)">
<rect y="3" width="306" height="51" rx="10" fill="#E8C1C6"/>
</g>
<path d="M33.58 13.95C33.58 13.65 33.73 13.5 34.03 13.5H35.515C35.815 13.5 35.965 13.65 35.965 13.95V44.55C35.965 44.85 35.815 45 35.515 45H34.03C33.82 45 33.64 44.895 33.49 44.685L17.2 18.27C17.17 18.18 17.125 18.15 17.065 18.18C17.005 18.18 16.975 18.225 16.975 18.315V44.55C16.975 44.85 16.825 45 16.525 45H15.04C14.74 45 14.59 44.85 14.59 44.55V13.95C14.59 13.65 14.74 13.5 15.04 13.5H16.57C16.78 13.5 16.96 13.605 17.11 13.815L33.355 40.23C33.385 40.32 33.43 40.365 33.49 40.365C33.55 40.335 33.58 40.275 33.58 40.185V13.95ZM52.917 43.245C54.327 43.245 55.527 42.93 56.517 42.3C57.537 41.64 58.332 40.74 58.902 39.6C59.052 39.33 59.247 39.255 59.487 39.375L60.657 39.96C60.927 40.11 61.002 40.305 60.882 40.545C60.222 42.015 59.172 43.185 57.732 44.055C56.322 44.925 54.657 45.36 52.737 45.36C50.637 45.36 48.852 44.85 47.382 43.83C45.912 42.81 44.907 41.415 44.367 39.645C44.127 38.895 43.962 38.055 43.872 37.125C43.782 36.195 43.737 35.025 43.737 33.615C43.737 32.145 43.752 31.035 43.782 30.285C43.842 29.535 43.947 28.845 44.097 28.215C44.577 26.325 45.552 24.81 47.022 23.67C48.522 22.53 50.352 21.96 52.512 21.96C54.972 21.96 56.937 22.605 58.407 23.895C59.877 25.155 60.792 26.91 61.152 29.16C61.242 29.73 61.302 30.405 61.332 31.185C61.362 31.935 61.377 32.88 61.377 34.02C61.377 34.32 61.227 34.47 60.927 34.47H46.257C46.137 34.47 46.077 34.53 46.077 34.65C46.077 36.57 46.152 37.845 46.302 38.475C46.632 39.945 47.367 41.115 48.507 41.985C49.677 42.825 51.147 43.245 52.917 43.245ZM46.392 28.755C46.242 29.325 46.137 30.495 46.077 32.265C46.077 32.385 46.137 32.445 46.257 32.445H58.812C58.932 32.445 58.992 32.385 58.992 32.265C58.992 30.765 58.917 29.64 58.767 28.89C58.437 27.45 57.717 26.295 56.607 25.425C55.497 24.525 54.132 24.075 52.512 24.075C50.892 24.075 49.542 24.51 48.462 25.38C47.382 26.22 46.692 27.345 46.392 28.755ZM68.7693 45C68.4693 45 68.3193 44.85 68.3193 44.55V13.95C68.3193 13.65 68.4693 13.5 68.7693 13.5H70.2543C70.5543 13.5 70.7043 13.65 70.7043 13.95V33.165C70.7043 33.225 70.7193 33.27 70.7493 33.3C70.8093 33.33 70.8693 33.315 70.9293 33.255L81.3243 22.545C81.4743 22.395 81.6543 22.32 81.8643 22.32H83.6643C83.8443 22.32 83.9493 22.38 83.9793 22.5C84.0393 22.59 84.0093 22.71 83.8893 22.86L78.1743 28.98C78.1143 29.04 78.0993 29.115 78.1293 29.205L85.0593 44.46L85.1043 44.64C85.1043 44.88 84.9693 45 84.6993 45H83.1243C82.8843 45 82.7193 44.88 82.6293 44.64L76.5093 30.825C76.4493 30.705 76.3743 30.69 76.2843 30.78L70.7943 36.45C70.7343 36.51 70.7043 36.585 70.7043 36.675V44.55C70.7043 44.85 70.5543 45 70.2543 45H68.7693ZM92.3127 17.775C91.6527 17.775 91.1127 17.565 90.6927 17.145C90.2727 16.725 90.0627 16.185 90.0627 15.525C90.0627 14.865 90.2727 14.325 90.6927 13.905C91.1127 13.485 91.6527 13.275 92.3127 13.275C92.9727 13.275 93.5127 13.485 93.9327 13.905C94.3527 14.325 94.5627 14.865 94.5627 15.525C94.5627 16.185 94.3527 16.725 93.9327 17.145C93.5127 17.565 92.9727 17.775 92.3127 17.775ZM91.4577 44.955C91.1577 44.955 91.0077 44.805 91.0077 44.505V22.725C91.0077 22.425 91.1577 22.275 91.4577 22.275H92.9427C93.2427 22.275 93.3927 22.425 93.3927 22.725V44.505C93.3927 44.805 93.2427 44.955 92.9427 44.955H91.4577ZM111.431 23.895C111.431 24.195 111.281 24.345 110.981 24.345H105.716C105.596 24.345 105.536 24.405 105.536 24.525V38.745C105.536 40.275 105.881 41.355 106.571 41.985C107.261 42.585 108.371 42.885 109.901 42.885H110.936C111.236 42.885 111.386 43.035 111.386 43.335V44.55C111.386 44.85 111.236 45 110.936 45L109.586 45.045C107.486 45.045 105.896 44.64 104.816 43.83C103.766 43.02 103.226 41.535 103.196 39.375V24.525C103.196 24.405 103.136 24.345 103.016 24.345H100.316C100.016 24.345 99.8664 24.195 99.8664 23.895V22.77C99.8664 22.47 100.016 22.32 100.316 22.32H103.016C103.136 22.32 103.196 22.26 103.196 22.14V17.01C103.196 16.71 103.346 16.56 103.646 16.56H105.086C105.386 16.56 105.536 16.71 105.536 17.01V22.14C105.536 22.26 105.596 22.32 105.716 22.32H110.981C111.281 22.32 111.431 22.47 111.431 22.77V23.895ZM125.668 21.96C128.308 21.96 130.318 22.65 131.698 24.03C133.078 25.38 133.768 27.21 133.768 29.52V44.55C133.768 44.85 133.618 45 133.318 45H131.833C131.533 45 131.383 44.85 131.383 44.55V42.435C131.383 42.375 131.353 42.33 131.293 42.3C131.263 42.27 131.218 42.285 131.158 42.345C130.378 43.335 129.358 44.085 128.098 44.595C126.868 45.105 125.488 45.36 123.958 45.36C121.888 45.36 120.133 44.835 118.693 43.785C117.253 42.735 116.533 41.13 116.533 38.97C116.533 36.75 117.358 34.995 119.008 33.705C120.658 32.415 122.923 31.77 125.803 31.77H131.203C131.323 31.77 131.383 31.71 131.383 31.59V29.565C131.383 27.885 130.903 26.55 129.943 25.56C129.013 24.57 127.573 24.075 125.623 24.075C124.093 24.075 122.833 24.39 121.843 25.02C120.853 25.65 120.238 26.49 119.998 27.54C119.908 27.84 119.728 27.975 119.458 27.945L117.883 27.72C117.553 27.66 117.418 27.54 117.478 27.36C117.748 25.74 118.618 24.435 120.088 23.445C121.588 22.455 123.448 21.96 125.668 21.96ZM124.363 43.29C126.253 43.29 127.888 42.825 129.268 41.895C130.678 40.965 131.383 39.675 131.383 38.025V33.93C131.383 33.81 131.323 33.75 131.203 33.75H126.028C123.898 33.75 122.173 34.2 120.853 35.1C119.563 36 118.918 37.245 118.918 38.835C118.918 40.305 119.428 41.415 120.448 42.165C121.468 42.915 122.773 43.29 124.363 43.29ZM159.286 45.36C155.986 45.36 153.376 44.625 151.456 43.155C149.536 41.655 148.576 39.66 148.576 37.17V35.685C148.576 35.385 148.726 35.235 149.026 35.235H150.421C150.721 35.235 150.871 35.385 150.871 35.685V37.035C150.871 38.895 151.636 40.395 153.166 41.535C154.696 42.675 156.796 43.245 159.466 43.245C161.956 43.245 163.861 42.735 165.181 41.715C166.501 40.665 167.161 39.225 167.161 37.395C167.161 36.285 166.861 35.325 166.261 34.515C165.691 33.675 164.791 32.895 163.561 32.175C162.361 31.455 160.651 30.63 158.431 29.7C156.091 28.71 154.321 27.885 153.121 27.225C151.951 26.565 151.006 25.74 150.286 24.75C149.566 23.73 149.206 22.425 149.206 20.835C149.206 18.375 150.046 16.485 151.726 15.165C153.436 13.815 155.791 13.14 158.791 13.14C162.061 13.14 164.626 13.89 166.486 15.39C168.346 16.89 169.276 18.9 169.276 21.42V22.455C169.276 22.755 169.126 22.905 168.826 22.905H167.341C167.041 22.905 166.891 22.755 166.891 22.455V21.555C166.891 19.665 166.171 18.15 164.731 17.01C163.291 15.84 161.266 15.255 158.656 15.255C156.376 15.255 154.621 15.735 153.391 16.695C152.161 17.625 151.546 18.975 151.546 20.745C151.546 21.945 151.831 22.92 152.401 23.67C152.971 24.42 153.781 25.08 154.831 25.65C155.911 26.19 157.561 26.91 159.781 27.81C162.001 28.71 163.786 29.58 165.136 30.42C166.516 31.23 167.596 32.19 168.376 33.3C169.156 34.41 169.546 35.745 169.546 37.305C169.546 39.735 168.646 41.685 166.846 43.155C165.046 44.625 162.526 45.36 159.286 45.36ZM190.022 22.77C190.022 22.47 190.172 22.32 190.472 22.32H191.912C192.212 22.32 192.362 22.47 192.362 22.77V44.55C192.362 44.85 192.212 45 191.912 45H190.472C190.172 45 190.022 44.85 190.022 44.55V42.345C190.022 42.255 189.992 42.21 189.932 42.21C189.872 42.18 189.827 42.21 189.797 42.3C189.167 43.29 188.312 44.04 187.232 44.55C186.182 45.06 184.937 45.315 183.497 45.315C181.277 45.315 179.432 44.655 177.962 43.335C176.492 42.015 175.757 40.2 175.757 37.89V22.77C175.757 22.47 175.907 22.32 176.207 22.32H177.647C177.947 22.32 178.097 22.47 178.097 22.77V37.26C178.097 39.06 178.622 40.5 179.672 41.58C180.752 42.66 182.177 43.2 183.947 43.2C185.777 43.2 187.247 42.66 188.357 41.58C189.467 40.47 190.022 39.03 190.022 37.26V22.77ZM208.749 22.14C209.769 22.14 210.639 22.32 211.359 22.68C211.599 22.77 211.689 22.965 211.629 23.265L211.224 24.705C211.134 25.005 210.939 25.095 210.639 24.975C210.039 24.735 209.289 24.63 208.389 24.66C206.709 24.69 205.314 25.335 204.204 26.595C203.124 27.825 202.584 29.34 202.584 31.14V44.55C202.584 44.85 202.434 45 202.134 45H200.649C200.349 45 200.199 44.85 200.199 44.55V22.77C200.199 22.47 200.349 22.32 200.649 22.32H202.134C202.434 22.32 202.584 22.47 202.584 22.77V25.83C202.584 25.92 202.599 25.98 202.629 26.01C202.689 26.01 202.734 25.965 202.764 25.875C203.394 24.705 204.204 23.79 205.194 23.13C206.214 22.47 207.399 22.14 208.749 22.14ZM238.871 22.005C241.061 22.005 242.816 22.665 244.136 23.985C245.456 25.305 246.116 27.12 246.116 29.43V44.55C246.116 44.85 245.966 45 245.666 45H244.226C243.926 45 243.776 44.85 243.776 44.55V29.88C243.776 28.11 243.251 26.715 242.201 25.695C241.181 24.645 239.846 24.12 238.196 24.12C236.456 24.12 235.046 24.63 233.966 25.65C232.916 26.67 232.391 28.05 232.391 29.79V44.55C232.391 44.85 232.241 45 231.941 45H230.501C230.201 45 230.051 44.85 230.051 44.55V29.88C230.051 28.11 229.541 26.715 228.521 25.695C227.501 24.645 226.166 24.12 224.516 24.12C222.746 24.12 221.336 24.63 220.286 25.65C219.266 26.67 218.756 28.05 218.756 29.79V44.55C218.756 44.85 218.606 45 218.306 45H216.821C216.521 45 216.371 44.85 216.371 44.55V22.77C216.371 22.47 216.521 22.32 216.821 22.32H218.306C218.606 22.32 218.756 22.47 218.756 22.77V24.795C218.756 24.855 218.786 24.9 218.846 24.93C218.906 24.96 218.951 24.945 218.981 24.885C219.611 23.925 220.451 23.205 221.501 22.725C222.581 22.245 223.796 22.005 225.146 22.005C226.706 22.005 228.041 22.35 229.151 23.04C230.291 23.7 231.146 24.645 231.716 25.875C231.776 25.995 231.851 26.01 231.941 25.92C232.571 24.63 233.486 23.655 234.686 22.995C235.886 22.335 237.281 22.005 238.871 22.005ZM261.108 21.96C263.748 21.96 265.758 22.65 267.138 24.03C268.518 25.38 269.208 27.21 269.208 29.52V44.55C269.208 44.85 269.058 45 268.758 45H267.273C266.973 45 266.823 44.85 266.823 44.55V42.435C266.823 42.375 266.793 42.33 266.733 42.3C266.703 42.27 266.658 42.285 266.598 42.345C265.818 43.335 264.798 44.085 263.538 44.595C262.308 45.105 260.928 45.36 259.398 45.36C257.328 45.36 255.573 44.835 254.133 43.785C252.693 42.735 251.973 41.13 251.973 38.97C251.973 36.75 252.798 34.995 254.448 33.705C256.098 32.415 258.363 31.77 261.243 31.77H266.643C266.763 31.77 266.823 31.71 266.823 31.59V29.565C266.823 27.885 266.343 26.55 265.383 25.56C264.453 24.57 263.013 24.075 261.063 24.075C259.533 24.075 258.273 24.39 257.283 25.02C256.293 25.65 255.678 26.49 255.438 27.54C255.348 27.84 255.168 27.975 254.898 27.945L253.323 27.72C252.993 27.66 252.858 27.54 252.918 27.36C253.188 25.74 254.058 24.435 255.528 23.445C257.028 22.455 258.888 21.96 261.108 21.96ZM259.803 43.29C261.693 43.29 263.328 42.825 264.708 41.895C266.118 40.965 266.823 39.675 266.823 38.025V33.93C266.823 33.81 266.763 33.75 266.643 33.75H261.468C259.338 33.75 257.613 34.2 256.293 35.1C255.003 36 254.358 37.245 254.358 38.835C254.358 40.305 254.868 41.415 255.888 42.165C256.908 42.915 258.213 43.29 259.803 43.29ZM285.266 22.005C287.576 22.005 289.436 22.71 290.846 24.12C292.286 25.53 293.006 27.39 293.006 29.7V44.55C293.006 44.85 292.856 45 292.556 45H291.071C290.771 45 290.621 44.85 290.621 44.55V30.15C290.621 28.38 290.081 26.94 289.001 25.83C287.921 24.69 286.511 24.12 284.771 24.12C282.971 24.12 281.516 24.675 280.406 25.785C279.296 26.865 278.741 28.29 278.741 30.06V44.55C278.741 44.85 278.591 45 278.291 45H276.806C276.506 45 276.356 44.85 276.356 44.55V22.77C276.356 22.47 276.506 22.32 276.806 22.32H278.291C278.591 22.32 278.741 22.47 278.741 22.77V24.975C278.741 25.065 278.756 25.125 278.786 25.155C278.846 25.155 278.891 25.125 278.921 25.065C279.581 24.075 280.451 23.325 281.531 22.815C282.611 22.275 283.856 22.005 285.266 22.005Z" fill="#5E064A"/>
<line y1="66.5" x2="62" y2="66.5" stroke="#5E064A"/>
<path d="M104.452 76.184C103.379 76.184 102.428 75.9693 101.6 75.54C100.772 75.1107 100.128 74.5127 99.668 73.746C99.208 72.964 98.978 72.0593 98.978 71.032V60.13C98.978 59.9767 99.0547 59.9 99.208 59.9H100.381C100.534 59.9 100.611 59.9767 100.611 60.13V71.078C100.611 72.1667 100.964 73.056 101.669 73.746C102.374 74.4207 103.302 74.758 104.452 74.758C105.602 74.758 106.53 74.4207 107.235 73.746C107.94 73.056 108.293 72.1667 108.293 71.078V60.13C108.293 59.9767 108.37 59.9 108.523 59.9H109.696C109.849 59.9 109.926 59.9767 109.926 60.13V71.032C109.926 72.0593 109.696 72.964 109.236 73.746C108.791 74.5127 108.155 75.1107 107.327 75.54C106.499 75.9693 105.541 76.184 104.452 76.184ZM114.306 76C114.153 76 114.076 75.9233 114.076 75.77V60.13C114.076 59.9767 114.153 59.9 114.306 59.9H115.479C115.632 59.9 115.709 59.9767 115.709 60.13V75.77C115.709 75.9233 115.632 76 115.479 76H114.306ZM124.863 76C124.709 76 124.633 75.9233 124.633 75.77V60.13C124.633 59.9767 124.709 59.9 124.863 59.9H130.291C131.809 59.9 133.012 60.2987 133.902 61.096C134.806 61.8933 135.259 62.9743 135.259 64.339V71.561C135.259 72.9257 134.806 74.0067 133.902 74.804C133.012 75.6013 131.809 76 130.291 76H124.863ZM126.266 74.482C126.266 74.5433 126.296 74.574 126.358 74.574H130.36C131.356 74.574 132.146 74.2827 132.729 73.7C133.327 73.1173 133.626 72.3353 133.626 71.354V64.569C133.626 63.5723 133.334 62.7827 132.752 62.2C132.169 61.6173 131.372 61.326 130.36 61.326H126.358C126.296 61.326 126.266 61.3567 126.266 61.418V74.482ZM147.452 68.226C147.514 68.6553 147.544 69.192 147.544 69.836V70.572C147.544 70.7253 147.468 70.802 147.314 70.802H139.885C139.824 70.802 139.793 70.8327 139.793 70.894C139.824 71.7373 139.87 72.2817 139.931 72.527C140.1 73.217 140.46 73.7613 141.012 74.16C141.564 74.5587 142.27 74.758 143.128 74.758C143.772 74.758 144.34 74.6123 144.83 74.321C145.321 74.0297 145.704 73.6157 145.98 73.079C146.072 72.941 146.18 72.9103 146.302 72.987L147.199 73.516C147.322 73.5927 147.353 73.7 147.291 73.838C146.908 74.574 146.333 75.1567 145.566 75.586C144.8 76 143.918 76.207 142.921 76.207C141.833 76.1917 140.92 75.931 140.184 75.425C139.448 74.919 138.919 74.2137 138.597 73.309C138.321 72.573 138.183 71.515 138.183 70.135C138.183 69.491 138.191 68.9697 138.206 68.571C138.237 68.157 138.298 67.789 138.39 67.467C138.651 66.4703 139.172 65.673 139.954 65.075C140.752 64.477 141.71 64.178 142.829 64.178C144.225 64.178 145.298 64.5307 146.049 65.236C146.801 65.9413 147.268 66.938 147.452 68.226ZM142.829 65.604C142.078 65.604 141.449 65.8033 140.943 66.202C140.453 66.5853 140.131 67.1067 139.977 67.766C139.885 68.088 139.824 68.6093 139.793 69.33C139.793 69.3913 139.824 69.422 139.885 69.422H145.842C145.904 69.422 145.934 69.3913 145.934 69.33C145.904 68.64 145.858 68.1493 145.796 67.858C145.628 67.168 145.283 66.6237 144.761 66.225C144.255 65.811 143.611 65.604 142.829 65.604ZM154.408 76.115C153.549 76.115 152.783 75.977 152.108 75.701C151.449 75.425 150.935 75.057 150.567 74.597C150.214 74.137 150.038 73.6233 150.038 73.056V72.78C150.038 72.6267 150.115 72.55 150.268 72.55H151.372C151.525 72.55 151.602 72.6267 151.602 72.78V72.964C151.602 73.47 151.863 73.9147 152.384 74.298C152.921 74.666 153.588 74.85 154.385 74.85C155.182 74.85 155.826 74.6737 156.317 74.321C156.808 73.953 157.053 73.493 157.053 72.941C157.053 72.5577 156.923 72.2433 156.662 71.998C156.417 71.7527 156.118 71.561 155.765 71.423C155.428 71.285 154.899 71.1087 154.178 70.894C153.319 70.6487 152.614 70.4033 152.062 70.158C151.51 69.9127 151.042 69.5753 150.659 69.146C150.291 68.7013 150.107 68.1417 150.107 67.467C150.107 66.4857 150.49 65.7037 151.257 65.121C152.024 64.5383 153.036 64.247 154.293 64.247C155.136 64.247 155.88 64.385 156.524 64.661C157.183 64.937 157.689 65.3203 158.042 65.811C158.395 66.2863 158.571 66.823 158.571 67.421V67.49C158.571 67.6433 158.494 67.72 158.341 67.72H157.26C157.107 67.72 157.03 67.6433 157.03 67.49V67.421C157.03 66.8997 156.777 66.4627 156.271 66.11C155.78 65.7573 155.113 65.581 154.27 65.581C153.488 65.581 152.859 65.742 152.384 66.064C151.909 66.3707 151.671 66.8 151.671 67.352C151.671 67.8733 151.901 68.272 152.361 68.548C152.821 68.824 153.534 69.1 154.5 69.376C155.389 69.6367 156.11 69.882 156.662 70.112C157.214 70.342 157.689 70.6793 158.088 71.124C158.487 71.5533 158.686 72.1207 158.686 72.826C158.686 73.8227 158.295 74.62 157.513 75.218C156.731 75.816 155.696 76.115 154.408 76.115ZM162.767 62.246C162.399 62.246 162.093 62.1233 161.847 61.878C161.602 61.6327 161.479 61.326 161.479 60.958C161.479 60.5747 161.602 60.268 161.847 60.038C162.093 59.7927 162.399 59.67 162.767 59.67C163.135 59.67 163.442 59.7927 163.687 60.038C163.933 60.268 164.055 60.5747 164.055 60.958C164.055 61.326 163.933 61.6327 163.687 61.878C163.442 62.1233 163.135 62.246 162.767 62.246ZM162.123 75.977C161.97 75.977 161.893 75.9003 161.893 75.747V64.569C161.893 64.4157 161.97 64.339 162.123 64.339H163.296C163.45 64.339 163.526 64.4157 163.526 64.569V75.747C163.526 75.9003 163.45 75.977 163.296 75.977H162.123ZM174.702 64.592C174.702 64.4387 174.778 64.362 174.932 64.362H176.105C176.258 64.362 176.335 64.4387 176.335 64.592V75.609C176.335 77.3263 175.836 78.5837 174.84 79.381C173.858 80.1783 172.501 80.577 170.769 80.577C170.416 80.577 170.148 80.5693 169.964 80.554C169.81 80.5387 169.734 80.4543 169.734 80.301L169.78 79.243C169.78 79.1663 169.803 79.105 169.849 79.059C169.895 79.0283 169.948 79.0207 170.01 79.036L170.631 79.059C172.057 79.059 173.092 78.7753 173.736 78.208C174.38 77.656 174.702 76.7743 174.702 75.563V74.712C174.702 74.6813 174.686 74.666 174.656 74.666C174.64 74.6507 174.617 74.6583 174.587 74.689C173.881 75.609 172.877 76.069 171.574 76.069C170.577 76.069 169.688 75.8007 168.906 75.264C168.139 74.7273 167.625 73.9683 167.365 72.987C167.181 72.3583 167.089 71.423 167.089 70.181C167.089 69.5063 167.104 68.939 167.135 68.479C167.181 68.019 167.265 67.605 167.388 67.237C167.664 66.317 168.162 65.581 168.883 65.029C169.603 64.4617 170.47 64.178 171.482 64.178C172.846 64.178 173.881 64.6303 174.587 65.535C174.617 65.5657 174.64 65.5733 174.656 65.558C174.686 65.5427 174.702 65.5197 174.702 65.489V64.592ZM174.587 72.481C174.633 72.251 174.663 71.9673 174.679 71.63C174.694 71.2927 174.702 70.802 174.702 70.158C174.702 69.376 174.694 68.8547 174.679 68.594C174.663 68.318 174.625 68.065 174.564 67.835C174.441 67.191 174.134 66.662 173.644 66.248C173.168 65.8187 172.563 65.604 171.827 65.604C171.106 65.604 170.493 65.811 169.987 66.225C169.496 66.639 169.151 67.1757 168.952 67.835C168.798 68.3257 168.722 69.0923 168.722 70.135C168.722 71.2543 168.798 72.0287 168.952 72.458C169.105 73.102 169.435 73.6387 169.941 74.068C170.462 74.482 171.091 74.689 171.827 74.689C172.578 74.689 173.191 74.482 173.667 74.068C174.157 73.654 174.464 73.125 174.587 72.481ZM184.664 64.201C185.891 64.201 186.864 64.5613 187.585 65.282C188.321 66.0027 188.689 66.9687 188.689 68.18V75.77C188.689 75.9233 188.612 76 188.459 76H187.286C187.133 76 187.056 75.9233 187.056 75.77V68.502C187.056 67.6587 186.795 66.9687 186.274 66.432C185.768 65.8953 185.109 65.627 184.296 65.627C183.453 65.627 182.77 65.8877 182.249 66.409C181.728 66.9303 181.467 67.6127 181.467 68.456V75.77C181.467 75.9233 181.39 76 181.237 76H180.064C179.911 76 179.834 75.9233 179.834 75.77V64.592C179.834 64.4387 179.911 64.362 180.064 64.362H181.237C181.39 64.362 181.467 64.4387 181.467 64.592V65.581C181.467 65.6117 181.475 65.6347 181.49 65.65C181.521 65.6653 181.544 65.6577 181.559 65.627C182.234 64.6763 183.269 64.201 184.664 64.201ZM200.999 68.226C201.061 68.6553 201.091 69.192 201.091 69.836V70.572C201.091 70.7253 201.015 70.802 200.861 70.802H193.432C193.371 70.802 193.34 70.8327 193.34 70.894C193.371 71.7373 193.417 72.2817 193.478 72.527C193.647 73.217 194.007 73.7613 194.559 74.16C195.111 74.5587 195.817 74.758 196.675 74.758C197.319 74.758 197.887 74.6123 198.377 74.321C198.868 74.0297 199.251 73.6157 199.527 73.079C199.619 72.941 199.727 72.9103 199.849 72.987L200.746 73.516C200.869 73.5927 200.9 73.7 200.838 73.838C200.455 74.574 199.88 75.1567 199.113 75.586C198.347 76 197.465 76.207 196.468 76.207C195.38 76.1917 194.467 75.931 193.731 75.425C192.995 74.919 192.466 74.2137 192.144 73.309C191.868 72.573 191.73 71.515 191.73 70.135C191.73 69.491 191.738 68.9697 191.753 68.571C191.784 68.157 191.845 67.789 191.937 67.467C192.198 66.4703 192.719 65.673 193.501 65.075C194.299 64.477 195.257 64.178 196.376 64.178C197.772 64.178 198.845 64.5307 199.596 65.236C200.348 65.9413 200.815 66.938 200.999 68.226ZM196.376 65.604C195.625 65.604 194.996 65.8033 194.49 66.202C194 66.5853 193.678 67.1067 193.524 67.766C193.432 68.088 193.371 68.6093 193.34 69.33C193.34 69.3913 193.371 69.422 193.432 69.422H199.389C199.451 69.422 199.481 69.3913 199.481 69.33C199.451 68.64 199.405 68.1493 199.343 67.858C199.175 67.168 198.83 66.6237 198.308 66.225C197.802 65.811 197.158 65.604 196.376 65.604ZM209.031 64.247C209.537 64.247 209.974 64.3467 210.342 64.546C210.465 64.6073 210.511 64.707 210.48 64.845L210.227 65.972C210.181 66.1253 210.081 66.1713 209.928 66.11C209.667 66.0027 209.368 65.949 209.031 65.949L208.732 65.972C207.935 66.0027 207.275 66.3017 206.754 66.869C206.233 67.421 205.972 68.1263 205.972 68.985V75.77C205.972 75.9233 205.895 76 205.742 76H204.569C204.416 76 204.339 75.9233 204.339 75.77V64.592C204.339 64.4387 204.416 64.362 204.569 64.362H205.742C205.895 64.362 205.972 64.4387 205.972 64.592V65.995C205.972 66.041 205.98 66.0717 205.995 66.087C206.026 66.087 206.049 66.0717 206.064 66.041C206.386 65.4737 206.792 65.0367 207.283 64.73C207.789 64.408 208.372 64.247 209.031 64.247Z" fill="#5D064A"/>
<line x1="244" y1="66.5" x2="306" y2="66.5" stroke="#5E064A"/>
<defs>
<filter id="filter0_i_29_356" x="0" y="3" width="308" height="53" filterUnits="userSpaceOnUse" color-interpolation-filters="sRGB">
<feFlood flood-opacity="0" result="BackgroundImageFix"/>
<feBlend mode="normal" in="SourceGraphic" in2="BackgroundImageFix" result="shape"/>
<feColorMatrix in="SourceAlpha" type="matrix" values="0 0 0 0 0 0 0 0 0 0 0 0 0 0 0 0 0 0 127 0" result="hardAlpha"/>
<feMorphology radius="1" operator="erode" in="SourceAlpha" result="effect1_innerShadow_29_356"/>
<feOffset dx="2" dy="2"/>
<feGaussianBlur stdDeviation="2.5"/>
<feComposite in2="hardAlpha" operator="arithmetic" k2="-1" k3="1"/>
<feColorMatrix type="matrix" values="0 0 0 0 0.366667 0 0 0 0 0.0229167 0 0 0 0 0.291042 0 0 0 0.15 0"/>
<feBlend mode="normal" in2="shape" result="effect1_innerShadow_29_356"/>
</filter>
</defs>
</svg>
