<svg width="150" height="80" viewBox="0 0 150 50" fill="none" xmlns="http://www.w3.org/2000/svg">
<rect width="150" height="80" rx="4" fill="#DFB3C0"/>
<rect width="138" height="3680" transform="translate(7 6)" fill="#93032E"/>
<path d="M8.17 22V5.88H10.432L14.202 17.216L14.228 17.346L14.254 17.372V5.88H16.49V22H14.176L10.458 11.496L10.406 11.314V22H8.17ZM22.5521 22.104C21.4774 22.104 20.6627 21.9653 20.1081 21.688C19.5534 21.4107 19.1807 21.0467 18.9901 20.596C18.7994 20.1453 18.7041 19.6687 18.7041 19.166V12.588C18.7041 12.068 18.7994 11.5913 18.9901 11.158C19.1981 10.7073 19.5794 10.3433 20.1341 10.066C20.7061 9.78867 21.5467 9.65 22.6561 9.65C23.6787 9.65 24.4761 9.78867 25.0481 10.066C25.6201 10.326 26.0187 10.6727 26.2441 11.106C26.4867 11.5393 26.6081 12.0247 26.6081 12.562V15.214L24.4241 15.344V12.952C24.4241 12.4667 24.2767 12.0767 23.9821 11.782C23.6874 11.47 23.2454 11.314 22.6561 11.314C22.0841 11.314 21.6421 11.47 21.3301 11.782C21.0354 12.0767 20.8881 12.4667 20.8881 12.952V18.75C20.8881 19.2353 21.0354 19.6253 21.3301 19.92C21.6247 20.1973 22.0234 20.336 22.5261 20.336C23.1847 20.336 23.6614 20.1887 23.9561 19.894C24.2681 19.5993 24.4241 19.1747 24.4241 18.62V17.606L26.6081 17.424V18.984C26.6081 19.556 26.4867 20.0847 26.2441 20.57C26.0187 21.038 25.6114 21.4107 25.0221 21.688C24.4327 21.9653 23.6094 22.104 22.5521 22.104ZM18.9901 16.228V15.058H26.6081V16.228H18.9901ZM28.8906 22V5.75H31.0746V22H28.8906ZM34.8706 22L31.5426 16.592H30.1646V14.928H31.5426L34.6366 9.468L36.6386 10.222L33.4926 15.552L37.3666 22H34.8706ZM38.4368 22V9.78H40.6208V22H38.4368ZM39.5288 8.402C39.0262 8.402 38.6968 8.33267 38.5408 8.194C38.4022 8.038 38.3328 7.76933 38.3328 7.388C38.3328 6.972 38.4022 6.69467 38.5408 6.556C38.6968 6.4 39.0262 6.322 39.5288 6.322C40.0488 6.322 40.3782 6.4 40.5168 6.556C40.6555 6.69467 40.7248 6.972 40.7248 7.388C40.7248 7.76933 40.6555 8.038 40.5168 8.194C40.3782 8.33267 40.0488 8.402 39.5288 8.402ZM46.3593 22C45.7007 22 45.1373 21.9307 44.6693 21.792C44.2187 21.6533 43.872 21.3933 43.6293 21.012C43.404 20.6133 43.2913 20.0587 43.2913 19.348V11.418H42.4333V9.78H43.5253L43.8633 7.492H45.4753V9.78H47.6853L47.1913 11.418H45.4753V18.516C45.4753 19.1747 45.6053 19.6253 45.8653 19.868C46.1253 20.1107 46.498 20.232 46.9833 20.232H47.8933V22H46.3593ZM51.3816 22C50.7229 22 50.2463 21.9047 49.9516 21.714C49.6743 21.506 49.5009 21.1593 49.4316 20.674C49.3623 20.1887 49.3276 19.5127 49.3276 18.646V12.51C49.3276 11.834 49.4056 11.2967 49.5616 10.898C49.7176 10.4993 50.0036 10.2133 50.4196 10.04C50.8529 9.86667 51.4596 9.78 52.2396 9.78H57.2316V22H55.0476V11.548H52.6556C52.2743 11.548 52.0056 11.6 51.8496 11.704C51.6936 11.7907 51.5983 11.9467 51.5636 12.172C51.5289 12.3973 51.5116 12.7093 51.5116 13.108V18.646C51.5116 19.114 51.5376 19.4607 51.5896 19.686C51.6416 19.9113 51.7369 20.0587 51.8756 20.128C52.0316 20.1973 52.2569 20.232 52.5516 20.232H54.3976L54.1896 22H51.3816ZM63.8263 5.88H66.0623V20.258H70.9763V22H63.8263V5.88ZM73.5765 21.974C73.1605 21.974 72.9178 21.9133 72.8485 21.792C72.7791 21.6533 72.7445 21.428 72.7445 21.116C72.7445 20.7867 72.7791 20.5613 72.8485 20.44C72.9178 20.3013 73.1605 20.232 73.5765 20.232C73.9925 20.232 74.2351 20.3013 74.3045 20.44C74.3911 20.5613 74.4345 20.7867 74.4345 21.116C74.4345 21.428 74.3911 21.6533 74.3045 21.792C74.2351 21.9133 73.9925 21.974 73.5765 21.974ZM85.2186 22.156C84.4559 22.1387 83.7626 22.078 83.1386 21.974C82.5146 21.87 82.0119 21.6707 81.6306 21.376C81.2666 21.064 81.0846 20.6307 81.0846 20.076V16.54L83.3206 16.28V19.166C83.3206 19.5473 83.4419 19.842 83.6846 20.05C83.9446 20.258 84.4126 20.362 85.0886 20.362C85.5392 20.362 85.8859 20.31 86.1286 20.206C86.3712 20.102 86.5359 19.946 86.6226 19.738C86.7092 19.5127 86.7526 19.2353 86.7526 18.906V16.904C86.7526 16.3667 86.6226 15.916 86.3626 15.552C86.1199 15.188 85.7126 14.9193 85.1406 14.746L83.2426 14.2C82.4799 13.9573 81.9252 13.654 81.5786 13.29C81.2492 12.9087 81.0846 12.3107 81.0846 11.496V8.324C81.0846 7.57867 81.2666 7.024 81.6306 6.66C81.9946 6.296 82.4799 6.05333 83.0866 5.932C83.7106 5.81067 84.4126 5.75 85.1926 5.75C85.9206 5.75 86.5706 5.81067 87.1426 5.932C87.7146 6.05333 88.1652 6.27 88.4946 6.582C88.8239 6.87667 88.9886 7.29267 88.9886 7.83V11.366L86.7526 11.704V8.896C86.7526 8.34133 86.6399 7.96867 86.4146 7.778C86.1892 7.58733 85.7472 7.492 85.0886 7.492C84.4472 7.492 83.9879 7.61333 83.7106 7.856C83.4506 8.08133 83.3206 8.52333 83.3206 9.182V10.95C83.3206 11.4007 83.4332 11.7907 83.6586 12.12C83.9012 12.4493 84.2479 12.6833 84.6986 12.822L86.7266 13.446C87.5412 13.6887 88.1219 14.018 88.4686 14.434C88.8152 14.8327 88.9886 15.4307 88.9886 16.228V19.504C88.9886 20.2493 88.8239 20.8127 88.4946 21.194C88.1826 21.558 87.7406 21.8093 87.1686 21.948C86.6139 22.0693 85.9639 22.1387 85.2186 22.156ZM93.983 22C93.1163 22 92.4663 21.87 92.033 21.61C91.617 21.35 91.3397 21.0293 91.201 20.648C91.0623 20.2667 90.993 19.8853 90.993 19.504V9.78H93.177V18.568C93.177 19.1573 93.3243 19.582 93.619 19.842C93.9137 20.102 94.3557 20.232 94.945 20.232H96.713V9.78H98.897V22H93.983ZM101.381 22V9.78H103.149L103.357 11.054C103.634 10.586 103.998 10.2307 104.449 9.988C104.899 9.74533 105.367 9.624 105.853 9.624C106.286 9.624 106.615 9.65 106.841 9.702C107.083 9.73667 107.291 9.79733 107.465 9.884L107.361 11.782C107.153 11.7127 106.91 11.652 106.633 11.6C106.373 11.548 106.052 11.522 105.671 11.522C105.168 11.522 104.726 11.6607 104.345 11.938C103.963 12.2153 103.703 12.6227 103.565 13.16V22H101.381ZM108.947 22V9.754H110.715L110.923 11.028C111.201 10.56 111.582 10.2047 112.067 9.962C112.553 9.71933 113.151 9.598 113.861 9.598C114.572 9.598 115.127 9.69333 115.525 9.884C115.941 10.0747 116.245 10.3347 116.435 10.664C116.643 10.976 116.765 11.3053 116.799 11.652L116.331 12.068C116.453 11.392 116.687 10.8807 117.033 10.534C117.38 10.17 117.779 9.92733 118.229 9.806C118.697 9.66733 119.148 9.598 119.581 9.598C120.431 9.598 121.063 9.73667 121.479 10.014C121.913 10.2913 122.199 10.638 122.337 11.054C122.493 11.47 122.571 11.8687 122.571 12.25V22H120.387V13.03C120.387 12.4233 120.231 11.99 119.919 11.73C119.607 11.47 119.174 11.34 118.619 11.34C118.117 11.34 117.692 11.47 117.345 11.73C117.016 11.99 116.851 12.4233 116.851 13.03V22H114.667V12.952C114.667 12.38 114.511 11.9727 114.199 11.73C113.887 11.47 113.454 11.34 112.899 11.34C112.397 11.34 112.007 11.4527 111.729 11.678C111.469 11.886 111.27 12.1633 111.131 12.51V22H108.947ZM126.893 22C126.235 22 125.758 21.9047 125.463 21.714C125.186 21.506 125.013 21.1593 124.943 20.674C124.874 20.1887 124.839 19.5127 124.839 18.646V12.51C124.839 11.834 124.917 11.2967 125.073 10.898C125.229 10.4993 125.515 10.2133 125.931 10.04C126.365 9.86667 126.971 9.78 127.751 9.78H132.743V22H130.559V11.548H128.167C127.786 11.548 127.517 11.6 127.361 11.704C127.205 11.7907 127.11 11.9467 127.075 12.172C127.041 12.3973 127.023 12.7093 127.023 13.108V18.646C127.023 19.114 127.049 19.4607 127.101 19.686C127.153 19.9113 127.249 20.0587 127.387 20.128C127.543 20.1973 127.769 20.232 128.063 20.232H129.909L129.701 22H126.893ZM135.252 9.754H137.02L137.228 11.028C137.488 10.5773 137.861 10.222 138.346 9.962C138.849 9.702 139.455 9.572 140.166 9.572C141.137 9.572 141.873 9.79733 142.376 10.248C142.896 10.6813 143.156 11.3487 143.156 12.25V22H140.972V12.978C140.972 12.406 140.816 11.9987 140.504 11.756C140.192 11.496 139.759 11.366 139.204 11.366C138.719 11.366 138.337 11.47 138.06 11.678C137.783 11.886 137.575 12.1633 137.436 12.51V22H135.252V9.754Z" fill="#F0F0F0"/>
<path d="M78.88 42.1C78.3733 42.1 77.9067 42.04 77.48 41.92C77.0533 41.8 76.7133 41.6067 76.46 41.34C76.2067 41.06 76.08 40.6867 76.08 40.22V29.6H77.1V39.88C77.1 40.12 77.1467 40.3467 77.24 40.56C77.3467 40.7733 77.5267 40.9467 77.78 41.08C78.0333 41.2133 78.4 41.28 78.88 41.28C79.4 41.28 79.7867 41.2133 80.04 41.08C80.2933 40.9467 80.46 40.7733 80.54 40.56C80.6333 40.3467 80.68 40.12 80.68 39.88V29.6H81.7V40.22C81.7 40.6867 81.58 41.06 81.34 41.34C81.1 41.6067 80.7667 41.8 80.34 41.92C79.9133 42.04 79.4267 42.1 78.88 42.1ZM83.9334 29.6H84.9534V42H83.9334V29.6ZM90.5936 29.6H94.5336C95.1603 29.6 95.5936 29.7667 95.8336 30.1C96.0869 30.42 96.2136 30.8933 96.2136 31.52V40.06C96.2136 40.7533 96.1003 41.2533 95.8736 41.56C95.6469 41.8533 95.1603 42 94.4136 42H90.5936V29.6ZM93.8336 41.18C94.3669 41.18 94.7269 41.0867 94.9136 40.9C95.1003 40.7 95.1936 40.3267 95.1936 39.78V31.8C95.1936 31.3333 95.0869 30.9867 94.8736 30.76C94.6736 30.5333 94.3803 30.42 93.9936 30.42H91.6136V41.18H93.8336ZM100.888 42.08C100.141 42.08 99.5742 41.9733 99.1875 41.76C98.8008 41.5467 98.5408 41.2733 98.4075 40.94C98.2742 40.6067 98.2075 40.2733 98.2075 39.94V34.64C98.2075 34.2933 98.2742 33.96 98.4075 33.64C98.5408 33.3067 98.8075 33.0333 99.2075 32.82C99.6208 32.6067 100.228 32.5 101.028 32.5C101.788 32.5 102.368 32.6067 102.768 32.82C103.168 33.02 103.441 33.2867 103.588 33.62C103.748 33.94 103.828 34.28 103.828 34.64V36.92L102.828 36.96V34.8C102.828 34.2933 102.661 33.9133 102.327 33.66C102.008 33.4067 101.568 33.28 101.008 33.28C100.461 33.28 100.021 33.4067 99.6875 33.66C99.3675 33.9133 99.2075 34.2933 99.2075 34.8V39.76C99.2075 40.2667 99.3675 40.6467 99.6875 40.9C100.008 41.14 100.408 41.26 100.888 41.26C101.514 41.26 101.994 41.1333 102.327 40.88C102.661 40.6133 102.828 40.1933 102.828 39.62V38.62L103.828 38.52V39.7C103.828 40.1267 103.748 40.52 103.588 40.88C103.428 41.24 103.134 41.5333 102.708 41.76C102.294 41.9733 101.688 42.08 100.888 42.08ZM98.3675 37.4V36.82H103.828V37.4H98.3675ZM108.364 42.12C107.417 42.12 106.744 41.9267 106.344 41.54C105.944 41.14 105.744 40.5867 105.744 39.88V38.52L106.644 38.38V39.84C106.644 40.0933 106.69 40.34 106.784 40.58C106.877 40.82 107.044 41.02 107.284 41.18C107.537 41.3267 107.897 41.4 108.364 41.4C108.937 41.4 109.384 41.3 109.704 41.1C110.037 40.9 110.204 40.48 110.204 39.84C110.204 39.28 110.117 38.8667 109.944 38.6C109.784 38.32 109.464 38.0667 108.984 37.84C108.904 37.8 108.77 37.74 108.584 37.66C108.397 37.58 108.197 37.5 107.984 37.42C107.77 37.34 107.57 37.26 107.384 37.18C107.21 37.1 107.084 37.04 107.004 37C106.684 36.8267 106.43 36.6533 106.244 36.48C106.057 36.2933 105.924 36.08 105.844 35.84C105.777 35.5867 105.744 35.2867 105.744 34.94V34.7C105.744 33.94 105.957 33.3867 106.384 33.04C106.824 32.68 107.524 32.5 108.484 32.5C109.43 32.5 110.104 32.6667 110.504 33C110.917 33.3333 111.124 33.8733 111.124 34.62V36.02L110.204 36.14V34.72C110.204 34.1333 110.05 33.74 109.744 33.54C109.45 33.3267 109.017 33.22 108.444 33.22C107.897 33.22 107.497 33.3067 107.244 33.48C106.99 33.64 106.83 33.84 106.764 34.08C106.697 34.32 106.664 34.5467 106.664 34.76C106.664 35.2533 106.717 35.6 106.824 35.8C106.944 36 107.17 36.1933 107.504 36.38C107.677 36.4733 107.884 36.5733 108.124 36.68C108.377 36.7733 108.63 36.8733 108.884 36.98C109.15 37.0867 109.384 37.1933 109.584 37.3C110.17 37.5667 110.57 37.8667 110.784 38.2C111.01 38.52 111.124 38.9933 111.124 39.62V39.8C111.124 40.56 110.924 41.14 110.524 41.54C110.137 41.9267 109.417 42.12 108.364 42.12ZM113.231 42V32.6H114.231V42H113.231ZM113.731 31.3C113.477 31.3 113.311 31.2667 113.231 31.2C113.164 31.12 113.131 30.98 113.131 30.78C113.131 30.5667 113.164 30.4267 113.231 30.36C113.311 30.28 113.477 30.24 113.731 30.24C113.984 30.24 114.144 30.28 114.211 30.36C114.291 30.4267 114.331 30.5667 114.331 30.78C114.331 30.98 114.291 31.12 114.211 31.2C114.144 31.2667 113.984 31.3 113.731 31.3ZM117.59 45.46L117.45 44.66H120.23C120.616 44.66 120.863 44.56 120.97 44.36C121.09 44.1733 121.15 43.8667 121.15 43.44V33.42H118.61C118.236 33.42 117.97 33.4667 117.81 33.56C117.663 33.6533 117.576 33.8133 117.55 34.04C117.536 34.2533 117.53 34.5533 117.53 34.94V39.7C117.53 40.1133 117.55 40.4267 117.59 40.64C117.63 40.8533 117.716 41 117.85 41.08C117.983 41.1467 118.19 41.18 118.47 41.18H120.53L120.39 42H117.99C117.523 42 117.183 41.9333 116.97 41.8C116.756 41.6667 116.63 41.42 116.59 41.06C116.55 40.6867 116.53 40.1533 116.53 39.46V34.46C116.53 33.94 116.583 33.5467 116.69 33.28C116.796 33.0133 117.003 32.8333 117.31 32.74C117.616 32.6467 118.07 32.6 118.67 32.6H122.15V43.68C122.15 44.2933 122.036 44.74 121.81 45.02C121.583 45.3133 121.17 45.46 120.57 45.46H117.59ZM124.559 32.56H125.359L125.459 33.54C125.673 33.22 125.966 32.96 126.339 32.76C126.726 32.56 127.199 32.46 127.759 32.46C128.559 32.46 129.159 32.6333 129.559 32.98C129.973 33.3267 130.179 33.8333 130.179 34.5V42H129.179V34.84C129.179 34.2933 129.013 33.9 128.679 33.66C128.359 33.4067 127.919 33.28 127.359 33.28C126.893 33.28 126.513 33.38 126.219 33.58C125.939 33.7667 125.719 34.0067 125.559 34.3V42H124.559V32.56ZM134.95 42.08C134.203 42.08 133.637 41.9733 133.25 41.76C132.863 41.5467 132.603 41.2733 132.47 40.94C132.337 40.6067 132.27 40.2733 132.27 39.94V34.64C132.27 34.2933 132.337 33.96 132.47 33.64C132.603 33.3067 132.87 33.0333 133.27 32.82C133.683 32.6067 134.29 32.5 135.09 32.5C135.85 32.5 136.43 32.6067 136.83 32.82C137.23 33.02 137.503 33.2867 137.65 33.62C137.81 33.94 137.89 34.28 137.89 34.64V36.92L136.89 36.96V34.8C136.89 34.2933 136.723 33.9133 136.39 33.66C136.07 33.4067 135.63 33.28 135.07 33.28C134.523 33.28 134.083 33.4067 133.75 33.66C133.43 33.9133 133.27 34.2933 133.27 34.8V39.76C133.27 40.2667 133.43 40.6467 133.75 40.9C134.07 41.14 134.47 41.26 134.95 41.26C135.577 41.26 136.057 41.1333 136.39 40.88C136.723 40.6133 136.89 40.1933 136.89 39.62V38.62L137.89 38.52V39.7C137.89 40.1267 137.81 40.52 137.65 40.88C137.49 41.24 137.197 41.5333 136.77 41.76C136.357 41.9733 135.75 42.08 134.95 42.08ZM132.43 37.4V36.82H137.89V37.4H132.43ZM140.106 42V32.6H140.906L141.006 33.58C141.22 33.2333 141.5 32.9667 141.846 32.78C142.206 32.58 142.58 32.48 142.966 32.48C143.286 32.48 143.533 32.5 143.706 32.54C143.88 32.58 144.04 32.6333 144.186 32.7L144.146 33.58C143.973 33.5133 143.793 33.46 143.606 33.42C143.42 33.38 143.186 33.36 142.906 33.36C142.48 33.36 142.113 33.4733 141.806 33.7C141.5 33.9133 141.266 34.2067 141.106 34.58V42H140.106Z" fill="#F0F0F0"/>
</svg>
